# xmcd
#
# Track frame offsets:
#	150
#	12772
#	26462
#	39779
#	52572
#	68761
#	86677
#	105327
#	117329
#	133382
#	151724
#	176429
#
# Disc length: 3626 seconds
#
# Revision: 18
# Processed by: cddbd v1.5.2PL0 Copyright (c) Steve Scherf et al.
# Submitted via: audiograbber 1.83.01
#
DISCID=810e280c
DTITLE=Pearl Jam - Backspacer
DYEAR=2009
DGENRE=Grunge
TTITLE0=Gonna See My Friend
TTITLE1=Got Some
TTITLE2=The Fixer
TTITLE3=Johnny Guitar
TTITLE4=Just Breathe
TTITLE5=Amongst The Waves
TTITLE6=Unthought Known
TTITLE7=Supersonic
TTITLE8=Speed Of Sound
TTITLE9=Force Of Nature
TTITLE10=The End
TTITLE11=Data: Front end to give access to two free concert downloads
EXTD=
EXTT0=
EXTT1=
EXTT2=
EXTT3=
EXTT4=
EXTT5=
EXTT6=
EXTT7=
EXTT8=
EXTT9=
EXTT10=
EXTT11=
PLAYORDER=
